<svg xmlns="http://www.w3.org/2000/svg" viewBox="0 0 32 32" class="noi n-circle-close" fill="#1d3457"><path d="M16.025 2.017c7.709 0 13.958 6.249 13.958 13.958s-6.249 13.958-13.958 13.958c-7.709 0-13.958-6.249-13.958-13.958S8.316 2.017 16.025 2.017zm0-2.068C7.174-.051 0 7.124 0 15.974s7.175 16.025 16.025 16.025c8.851 0 16.025-7.175 16.025-16.025S24.875-.051 16.025-.051z"/><path d="M19.291 16.316l4.821-4.82a1.487 1.487 0 000-2.096l-1.1-1.1a1.516 1.516 0 00-2.097.001l.001-.001-4.82 4.821L11.275 8.3a1.516 1.516 0 00-2.097.001l.001-.001-1.1 1.1a1.516 1.516 0 00.001 2.097l-.001-.001 4.821 4.821-4.821 4.821a1.516 1.516 0 00.001 2.097l-.001-.001 1.1 1.1c.576.576 1.52.576 2.096 0l4.821-4.821 4.82 4.821c.576.576 1.52.576 2.096 0l1.1-1.1a1.487 1.487 0 000-2.096z"/></svg>