<svg xmlns="http://www.w3.org/2000/svg" class="noi n-dining" viewBox="0 0 32 32" fill="#1d3457" calss="noid n-dining"><path d="M7 7.7c-1.3-.8-2.7 0-2.7 0s-.8.7-1.1 1.3l.1 11c0 .8.8 1.5 1.5 1.5h9v9c.6.6 1 .4 1.5 0V20c-.1-.3-.3-.7-.8-.7h-6v-7.5l2.3.8H16c.7-.1.6-1.5 0-1.5l-5-.1zm11.3 4.1V7.4h-3v2.2zm-.8.8H22c.2.2.4.5 0 .7h-4.5c-.1-.2-.4-.3 0-.7z"/><path d="M10.8 15.6h20.9c.4.4.5.9 0 1.5H22v13.4h3c.4.6.3 1.1 0 1.5h-7.5c-.5-.7-.3-1.3 0-1.5h3V17h-9.7c-.6-.6-.3-1.2 0-1.5zM6 0c4 .1 3.8 6.1-.1 6-4-.2-3.3-6 0-6z"/><g fill="none" stroke="#1d3457" stroke-width=".4" stroke-linejoin="round"><path d="M6.7 25.3v6" stroke-width="1.5139760000000002"/><path d="M.7 11.9v13.4h10.5m-7.5 6h6" stroke-linecap="round" stroke-width="1.5139760000000002"/></g></svg>