<svg xmlns="http://www.w3.org/2000/svg" class="noi n-finger-pointing-page" viewBox="0 0 32 32" fill="#1d3457"><defs></defs><circle cx="16" cy="16" r="15.6" class="n-path-1"></circle><g fill="none" stroke="#89b1cb" stroke-linejoin="round" stroke-width=".52" class="n-path-0"><path stroke-linecap="round" d="M10.26 21.83h8.46l1.23 1.54-.06 1.26h-9.7V7.33l9.78-.01v8.95M10.27 9l9.5-.02"></path><path stroke-linecap="round" d="M14.01 12.94v-2.82h-2.7v2.8zm.05 3.89H11.3l.03-2.83 2.73.02v1.14m-2.8 2.74l2.77.02-.04 2.8h-2.7zm4.3 4.78c.5.37.46.8-.04 1.1h-.87c-.63-.35-.39-.96.03-1.1 0 0 .34.02.87 0z"></path><path stroke-linecap="round" d="M21.79 24.68l.02-6.07c-.14.04-.2.1-.48-.04l-.36-.36c.2-.18.25-.46.1-.73L18.59 15c-.1-.13-.23-.35-.61-.15l-2.18 2.19-2.04-2.17c-.64-.15-.92.13-.86.8l4.1 4.08-1.58.07c-.32.08-.64.98.13 1.15l2.72.05zm-3-3.05l2.7-2.8"></path><path stroke-linecap="square" d="M15.04 10.39h.59m1.03.03l2.2-.03m-3.77 1.15h2.7m1.02-.01h.12m-3.88 1.12h3.82m-3.79 1.66h.56m1.02 0h.16"></path><path stroke-linecap="round" d="M16.66 16.27l.86.85m-.08-1.63l.89.82m-2.54.73l.93.9"></path><path stroke-linecap="square" d="M13.62 8.16h.22m.94 0h1.69"></path></g></svg>