<svg xmlns="http://www.w3.org/2000/svg" viewBox="0 0 32 32" fill="#1d3457" class="noi n-instagram"><path d="M16 7.8a8.2 8.2 0 100 16.4 8.2 8.2 0 000-16.4zm0 13.5a5.3 5.3 0 110-10.7 5.3 5.3 0 010 10.7zM26.4 7.5a2 2 0 11-2-2c1.2 0 2 1 2 2zm5.5 2a9.5 9.5 0 00-2.6-6.8A9.5 9.5 0 0022.6.1 194 194 0 009.4.1C6.8.2 4.5.8 2.7 2.7S.2 6.8 0 9.4C-.1 12-.1 20 0 22.6c.1 2.6.7 4.8 2.6 6.7s4.1 2.5 6.7 2.6h13.2c2.6-.1 4.8-.7 6.7-2.6a9.5 9.5 0 002.6-6.7V9.4zm-3.4 16a5.4 5.4 0 01-3 3c-2.2.8-7.2.6-9.5.6s-7.4.2-9.5-.6a5.4 5.4 0 01-3-3c-.8-2.2-.6-7.2-.6-9.5s-.2-7.3.6-9.4a5.4 5.4 0 013-3c2.2-.9 7.2-.7 9.5-.7s7.3-.2 9.4.6c1.4.6 2.5 1.7 3 3 1 2.2.7 7.2.7 9.5s.2 7.3-.6 9.4z"/></svg>