<svg xmlns="http://www.w3.org/2000/svg" id="Layer_1" data-name="Layer 1" viewBox="0 0 679.18 679.18"><defs/><defs/><path fill="#1d3457" d="M543.21 235.17c8.8-91-15.93-162.36-23.75-183.64 92.42 57.83 155.41 159 159.5 276.21 3.81 109.17-44.33 208.08-122.23 273-15.68.62-91.42 1.46-176.22-31.24a425.33 425.33 0 01-46.18-21c30.6-16.67 131.91-77.3 183.14-206.51a390.43 390.43 0 0025.74-106.82z"/><path fill="#457b9d" d="M334.34 548.43a425.33 425.33 0 0046.18 21c84.8 32.7 160.54 31.86 176.22 31.24-3.1 2.59-6.27 5.13-9.47 7.61a339.62 339.62 0 11-398.4-549.7c-2.69 7.73-14.15 43.9-19.13 93.43a451.8 451.8 0 00-1 79.91 404.79 404.79 0 0019.61 97.68 385.8 385.8 0 0048.57 96.92c39.62 57.4 88.52 96 137.42 121.91z"/><path fill="#89b1cb" d="M519.46 51.53c7.82 21.28 32.55 92.6 23.75 183.64-30.39-19.71-104.29-61.36-207.1-62.08-102.52-.71-176.8 39.68-207.38 58.83a451.8 451.8 0 011-79.91c5-49.53 16.44-85.7 19.13-93.43a289.6 289.6 0 017.2-4.78c1.49-1 3-1.91 4.49-2.84a339.89 339.89 0 01358.91.56z"/><path fill="#fcfdff" d="M543.21 235.17a390.43 390.43 0 01-25.73 106.75c-51.23 129.21-152.54 189.84-183.14 206.51-48.9-25.91-97.8-64.51-137.43-121.91a385.8 385.8 0 01-48.57-96.92 404.79 404.79 0 01-19.61-97.68c30.58-19.15 104.86-59.54 207.38-58.83 102.81.72 176.71 42.37 207.1 62.08z"/><path d="M509.58 261.8a.86.86 0 01-.21.44h-.49l-.32.18-.61-.18h-.73c-.35 0-.56 0-.63-.14a.36.36 0 00-.32-.13 1.42 1.42 0 00-.58.23 1.12 1.12 0 00-.57-.16 3.44 3.44 0 00-.89.21 3.2 3.2 0 01-.86.22h-.62a6.08 6.08 0 00-.61-.05.33.33 0 00-.35.24 1.37 1.37 0 00-.72-.24 2.22 2.22 0 00-1.3.49l-.46-.22-.39.22-1-.29-.73.36h-.8c-.49.11-.86.19-1.15.24a5.38 5.38 0 00-1.09.4l-.42-.26-.79.56h-.81l-.59.93.22.75c-.29.07-.44.4-.44 1v1.15l.13.15-.3.23.17.24a2.25 2.25 0 00-.33 1.06c0 .57.39.86 1.19.86a2.9 2.9 0 00.56-.09 1.44 1.44 0 01.77 0 3.36 3.36 0 00.72.09l.69-.25.7.22.46-.12h.44l.67-.14.4.1h.1a2.29 2.29 0 00.8-.25 2.05 2.05 0 00.92.14c.37 0 .62-.07.79-.1l.59-.11 1 .14c.09 0 .18-.07.26-.23a10.72 10.72 0 001.37.2h.47l1.54.07.81-.14c.05-.16.23-.23.52-.23l1 .11.41-.08.57.2.59-.12-.13.48a4.2 4.2 0 01-1.16.26 2.13 2.13 0 01-.46-.08 2.94 2.94 0 00-.68-.1l-1.16.49-1-.08-.57.2-.41-.08-.72.36-.49-.11h-1.79a.9.9 0 00-.59.24l-.62-.16-.32.27-.57-.15-.33.27-.86-.35-.61.35-.73-.16a1.17 1.17 0 00-.35 0 3.67 3.67 0 00-.92.16l-.52.15-1.62.13-.36-.17a4.49 4.49 0 01-1.35.33l-.36.74.42 2-.24.27.29.62-.05.71.15.19a5.13 5.13 0 01.25 1.15l.39.38-.22.67.46-.11.81 1.08a5.51 5.51 0 003 1.15l.81.12a5.51 5.51 0 00.95-.16l.16-.21h1a3.73 3.73 0 001-.45c.41 0 .65-.05.73-.15l.47-.12a1.26 1.26 0 00.51-.21l.62-.41a3.4 3.4 0 01.67-.63h.6l1.11-.87a2 2 0 001.63-1.25l.31.14.13-.61h.59l.08-.59h.13a.62.62 0 01.6.45l-1.53 1.75-.56.11a5.12 5.12 0 01-1.07 1.2l-1.11.67-.73.59h-.31l-.54.5-2.06.75-.49.55-.72-.19-.22.31h-.2l-.34.27-1.21-.23-1.5.58-1.07-.35-1.83-.83a3.93 3.93 0 01-1.42-1.11 8.91 8.91 0 01-1.28-2.39 14 14 0 01-.64-1.81l.16-.55-.33-.75.33-.34-.42-2.12-.68-.73a.63.63 0 01-.09-.4c0-.47.13-.76.38-.87a1.49 1.49 0 00.39-.18v-.25c0-.18.14-.29.42-.34l.13-.56-.13-.23v-1.1l-.16-.46.5-1.19q.22-.72.36-1.05l-.57-.63-1 .07h-.09a.71.71 0 01-.44-.15.5.5 0 01-.19-.38c0-.24.19-.55.59-.93a.58.58 0 00.31-.22 5.89 5.89 0 01.89-.27.41.41 0 01.31.2.42.42 0 01.38-.27c.43 0 .65-.11.65-.34a.59.59 0 00-.13-.29l1.49.08.27.44a2.59 2.59 0 011.44-.44h.3l.95-.2a2.2 2.2 0 00.9-.27v.27a1.79 1.79 0 011.11-.3h.91l4.27-.36 1 .36.31-.47a.37.37 0 00.34.29 3.74 3.74 0 00.43-.1l.47.25.34-.25.8.28.54-.11.26.19 1.44-.11.22.11c.64.04 1.02.16 1.04.25zM481.15 281.85c.35.31.54.55.56.69a1.39 1.39 0 01-.65.27l-.94-.55-1.23-1.32-.35-.78a6.24 6.24 0 00-.35-1.26 3.11 3.11 0 01-.51-2.14.64.64 0 01.1-.4 4.9 4.9 0 00.23-1.28l-.46-.83.13-.4-.13-.74.05-.86-.31-.27.26-.59-.26-.35.26-.36-.31-.82v-1.24l-.37-.75c0-.33 0-.61-.06-.86s-.29-.51-.84-.82l-.57.61-.5.21-1.51 1.84-1.32 1.38-.43.81-1.28 1.25-1.68 1.11-.16.64-.9.3-.13.53-1 .44-.35.74-.72.23-1 1.6c-.41 0-.65.33-.72 1a2 2 0 01-.31 0 6.72 6.72 0 00-.73-1l.1-.51-.31-.34.31-.35-.29-.28a3 3 0 01-.35-.83l.67-.19a6 6 0 00.91.9l.09-.52h.81l.5-1 .94-.58a7 7 0 01.81-.78v-.32c.32-.19.66-.36 1-.53a1.57 1.57 0 00.52-.29h-.05a1.09 1.09 0 01.26-.63h.42l.4-.5c.1.13.18.19.24.19s0 0 0-.11 0-.26-.11-.71c.66-.78 1.24-1.17 1.76-1.17v-.47c0-.27.25-.47.76-.6l.27.09.11-.24.94-1.3.09-.27h.31a3.73 3.73 0 001-1.45 1.23 1.23 0 01.68-.18c.1 0 .18 0 .21.11l.31-.58-.17-1.18-.27-.56a3.07 3.07 0 00.64-1.24 2.69 2.69 0 01.7.16 1 1 0 00.59.19l.09.62a8.2 8.2 0 01.78.62.6.6 0 010 .25l-.05.33v1.05l.26.34-.26.21.26.07-.08.43.17.19.13.82.24.17-.46.53.22.08-.13.83.33.7-.11.89.41 1.42a11 11 0 01.23 1.17 3 3 0 01-.53.71l.26.47c.12.06.17.13.17.2a.83.83 0 01-.16.36 2.93 2.93 0 00-.23.49l.36.29-.14 2.14.44 1.34v1.56l.33.31a3.87 3.87 0 00.44.79c.15.12.39.35.72.66z" class="cls-5"/><path d="M462.47 275l.26.34-.67.19-.62-.49a1.3 1.3 0 01-.46-.45l-.45-.59a3.27 3.27 0 01-.39-.93l-.49-.49-.85-1.5-.91-.89-.3-.56-.86-.82-.9-1.22c-.51-.68-.9-1-1.2-1a2.2 2.2 0 00-.58.08 1.47 1.47 0 01-.32.1h-.06v.48a3.84 3.84 0 01-.4 2l-.94 1.53.22 1-.31.69-.89 2.64-.36.85-.15.58-.57 1.26-.72 1.09.09.86-.77 1.6a.56.56 0 00.41.52c-.58.62-1 .93-1.16.93s-.19-.09-.34-.29a1.05 1.05 0 01-.25-.72 2.36 2.36 0 01.18-.49 5.47 5.47 0 00.3-1 1.74 1.74 0 01.38-.83l.25-.27v-1a1.25 1.25 0 01.91-1.2v-.63l.26-.9a.7.7 0 010-.24 2.9 2.9 0 01.24-.78 1 1 0 00.31-.7v-.86l.39-.63.81-2.36-.22-1 .39-.27.16-.48v-1.68a8.17 8.17 0 00.22-1.49 3.53 3.53 0 00-.59-1.45l.37-.65-.2-.29a.32.32 0 00.2-.34c.44 0 .72-.09.83-.27h.42l.53.34v.34l.5.29.13.9.42.31.17.55h.22a.66.66 0 00-.09.27c0 .23.24.36.73.4a2 2 0 01.61.42l.09.52.51.45.31.92 2 1.87.37 1.05.68.48.61 1.53zM425.73 263l-.22.42-.58.08h-1.35l-.64.14-.52-.14-2.79.21-.93-.21a6 6 0 01-1.67.4h-1.34l-.81-.26c0 .12-.11.21-.32.26a4.75 4.75 0 00-1.2.15 4 4 0 01-1.08.16l-.9-.31-.77.31-.09.24h-.39l-.25.38-.17 2.55.17.36-.08.42v1.12l-.13 1.15v.35a.5.5 0 01-.12.37 1.16 1.16 0 00-.18.62l.34.5-.08.63-.31.19a1.09 1.09 0 00.26.6l-.26.37v.44l-.32.5.22 1.1-.09 1.6-.33 1a.48.48 0 01.09.23.68.68 0 01-.07.25.31.31 0 000 .29.93.93 0 01.05.24 1.53 1.53 0 01-.21.51c-.15.26-.2.42-.16.49a4.55 4.55 0 01.16.61 2.18 2.18 0 00-.23.78 5.33 5.33 0 00.1.86 1.75 1.75 0 01-.48-.06l-.25-.06c-.24 0-.35-.37-.35-1.12l.09-.6a6.86 6.86 0 00-.09-.93c-.05-.41-.09-.7-.09-.9l.27-2.75a3.47 3.47 0 01-.36-.58.44.44 0 01.23-.36.54.54 0 01-.18-.34c0-.08.09-.15.26-.23a1.52 1.52 0 01-.17-.52 1.56 1.56 0 01.15-.56 2.46 2.46 0 00.15-.41v-.63a3.86 3.86 0 01.42-.86c-.25 0-.38-.17-.38-.51 0-.61.09-.94.27-1v-1.6l-.27-.79.27-1.64-.27-1.17.27-.92c-.12-.35-.32-.53-.62-.53a.55.55 0 00-.41.19l-.64.06a1.57 1.57 0 00-.7.21h-1.07v.13h-.38a2.59 2.59 0 01-1.2-.24l-.09.24-.94-.24-2.61-.08-1 .26c-.78-.58-1.16-1-1.16-1.16a4.42 4.42 0 01.18-.63h.62l3.18.55.76-.22 2.11.07 2 .15 1.31-.44h.35l.38-.89.61.17.13.38.29-.11a2.6 2.6 0 001 .67l.72-.22a1.75 1.75 0 011.25.52l.26-.3 1.66-.29 1 .07a2.22 2.22 0 00.82.18h.22a2.35 2.35 0 01.67-.14l.64.1a.26.26 0 00.26-.14l.9-.11 1 .21a.6.6 0 00.61.07 2.59 2.59 0 01.55-.13l.81.14h2.23l1 .15zM367.74 264.51l.57.9-.57.78.09.61.21-.07a2.38 2.38 0 01-.3.9l-.26.51v2l-.48.86.1.58-.39 1.78.16.45-.34 1.41.08.64-.33 1 .33 1-.72 1 .18.55-.4.67.22.39.18 1.83.3.6a1.21 1.21 0 00-.48.47l-.42-.08-.21-1.93-.31-.07c0-.23 0-.47-.06-.7v-1.46a1.22 1.22 0 00-.13-.64l-.29-.49-.85-.12-.48-.51-.22.25-.42-.44-.72.19-.88-.61-.46.08-.89-.16-.53-.48-.33.08-2.74-1.53-.3-.34-.95-.37-.59-.64-.53-.25-.72-.63-2-.77-1.44-1.6h-.62l-.32-.44a4.23 4.23 0 01-1.43-1.05h.22a2.75 2.75 0 01-.72-.9l-.31-.09h-.09a.64.64 0 00-.62.27 4.64 4.64 0 00-.32 1.14l-.42 2 .42 1.21-.63 2c.17.81.26 1.25.26 1.32v.16a1 1 0 01-.29.76c-.19.19-.28.33-.28.42s.19.16.57.27l-.26.82v1l-.23 1.07.23.43-.23.28a3.43 3.43 0 01-.58 1.84h-.31c-.37 0-.55-.25-.55-.75v-.15l.55-1.53-.22-.63.3-.82-.3-.31.35-.63-.51-.59a3.09 3.09 0 00.12-.75 4.41 4.41 0 00-.12-.86l.2.08.18-.39-.38-.58.38-.9-.22-1.16.3-1.27-.26-.86.31-1.87-.05-1.45.23-1.34-.23-.42.05-1.89.5-.12c-.39-.33-.59-.62-.59-.89a.54.54 0 01.27-.43l.81.16.21-.27a.79.79 0 01.42.61 1 1 0 01-.24.55h.64l.08.9.55.4.09.58.72.4.24.8a1.2 1.2 0 00.46.69l1.49.94v.07c0 .21.15.44.46.71l1 .61 1.12 1.14 3.51 2.55h.39a2.1 2.1 0 01.62.62c.08.2.17.3.23.31l1.43.4 1.14.83.66.18 1.27.64 1.21.3a3.16 3.16 0 001.87 1l.69-.15h.16l.08-1.1.64-1.18-.33-.27.13-1.83.48-.74-.07-.44a2.49 2.49 0 00-.44-.78l.51-1.53-.22-1.43.44-2.79-.53-.5.61-1.6-.21-.22.3-.34-.09-.27.69-.28.13.28.63-.11a2.29 2.29 0 00-.13.72 1.09 1.09 0 00.22.68.9.9 0 01.21.39zM330.8 262.24h-.17l-.27.59.27.11-.13.86a.59.59 0 00-.14.39l.14.51v.48l-.23.19.23.23-.34.71.11.66-.72 1.24.17.09a1.07 1.07 0 00-.08.47l.08.59v.08l-.5.19.5 1h-.3l.13.37-.33.5.42.67-.09.26h-.22c-.11 0-.15.09-.15.25a.87.87 0 00.54.74c-.29.11-.45.48-.48 1.09l-.06.43.24.62-.24.48v1.46l-.22 1 .46.19a1.65 1.65 0 01-.21.58.73.73 0 00-.12.35 1.45 1.45 0 00.46.83l-.3.07.57.52-.22.3.63.17a1.87 1.87 0 01-.5.94.48.48 0 01-.4-.51l-.58-.67-.36-.08.18-.67-.72-.7.3-.35-.43-.59.13-.82-.18-.39-.18-.32.36-.46-.18-.51.18-.35-.6-.4.47-.57-.05-2.64.31-2-.13-2 .21-.54-.21-.15.13-.48v-.71l.17-.27-.3-.07.21-.9c-.33 0-.54-.09-.61-.28h.61l.09-.64-.3-.07.21-.46a.73.73 0 00.38-.55.91.91 0 00-.29-.6l.29-.07v-.34h.44l.26-.56.37-.11c.75-.01 1.17.19 1.29.62zM305 263l-.22.42-.57.08h-1.36l-.64.14-.52-.14-2.79.21-.94-.21a5.92 5.92 0 01-1.66.4H295l-.81-.26c0 .12-.11.21-.33.26a4.73 4.73 0 00-1.19.15 4 4 0 01-1.08.16l-.91-.31-.77.31-.08.24h-.39l-.25.38-.17 2.55.17.36-.08.42v1.12l-.13 1.15v.35a.46.46 0 01-.13.37 1.28 1.28 0 00-.17.62l.34.5-.08.63-.31.19a1.09 1.09 0 00.26.6l-.26.37v.44l-.36.47.23 1.1-.1 1.6-.32 1a.62.62 0 01.09.23.56.56 0 01-.08.25.33.33 0 000 .29.64.64 0 01.05.24 1.42 1.42 0 01-.22.51c-.14.26-.2.42-.15.49a3.86 3.86 0 01.15.61 2.34 2.34 0 00-.22.78 6.37 6.37 0 00.09.86 1.73 1.73 0 01-.47-.06l-.25-.06c-.23 0-.35-.37-.35-1.12l.09-.6a6.86 6.86 0 00-.09-.93 6.81 6.81 0 01-.09-.9l.26-2.75a2.67 2.67 0 01-.34-.58.44.44 0 01.21-.36.57.57 0 01-.17-.34c0-.08.09-.15.26-.23a1.52 1.52 0 01-.17-.52 1.37 1.37 0 01.15-.56 2.46 2.46 0 00.15-.41v-.63a3.86 3.86 0 01.42-.86c-.25 0-.38-.17-.38-.51 0-.61.09-.94.27-1v-1.6l-.27-.79.27-1.64-.27-1.17.27-.92c-.12-.35-.33-.53-.62-.53a.55.55 0 00-.41.19l-.64.06a1.61 1.61 0 00-.7.21h-1.07v.13h-.38a2.59 2.59 0 01-1.2-.24l-.09.24-.94-.24-2.61-.08-1 .26c-.78-.58-1.16-1-1.16-1.16a5.29 5.29 0 01.17-.63h.73l3.18.55.76-.22 2.11.07 2 .15 1.31-.44h.27l.38-.89.61.17.13.38.29-.11a2.52 2.52 0 001 .67l.72-.22a1.76 1.76 0 011.25.52l.26-.3 1.66-.29 1 .07a2.14 2.14 0 00.82.18h.21a2.4 2.4 0 01.68-.14l.64.1a.27.27 0 00.26-.14l.9-.11 1 .21a.62.62 0 00.62.07 2.59 2.59 0 01.55-.13l.8.14h2.23l1 .15zM268.65 277.18l.05.59a2 2 0 01-.56 1 3 3 0 01-1.33.94.56.56 0 01-.55.25h-.13a4.74 4.74 0 00-2.37 1.09l-.94-.08-.81.63-.37-.21-.57.17c-.65 0-1 .09-1 .16l-1.4-.12a4.5 4.5 0 01-1.34.35l-1.23-.08-.86.35-.47-.09a.42.42 0 00-.64.09h-1.43l-.41-.23-.31.23-2.15-.09-1-.14a2.19 2.19 0 01-.72.19 2.63 2.63 0 01-1.27-.5l-.75.27-.24-.23h-.48a5.12 5.12 0 01-1.58-.24 4.34 4.34 0 00-.94-.24.6.6 0 00-.26.08l-1.58-1-1-.23a3.14 3.14 0 01-1-1.79 4.65 4.65 0 01.31-1.11h.32a.51.51 0 00.53-.45l.68-.08-.31-.14h.48c.25-.26.44-.38.55-.38.32 0 .48.24.48.71a2 2 0 00-1 .53c0 .1-.12.21-.35.33a3.38 3.38 0 00-.5.3l.13.23v.67a4.54 4.54 0 011.35 1l.55.08a2.88 2.88 0 01.88.38l.81-.08-.09-.23 1.21.08-.26.15 1 .16.13.18h2.08v.14a1 1 0 01.62-.21 1.27 1.27 0 01.42.08 3.44 3.44 0 001 .13l.09.23h1.29l.47.15-.21-.15a3.2 3.2 0 011-.24.66.66 0 01.44.2 1.87 1.87 0 01.94-.23 4.43 4.43 0 011.08.15 1.17 1.17 0 01.63-.19 1.52 1.52 0 01.68.19l1.61-.4.32-.38 1.38.15 1.12-.23h-.18a6.79 6.79 0 011.54-.11c.09-.09.15-.13.22-.13h.3l1.14-.43.22.08v-.19h.77v-.07c0-.25.23-.37.7-.37h.33l.18-.15-.13-.15c.23-.22.4-.33.52-.33.34 0 .5-.1.5-.31a2.33 2.33 0 00.57-1c0-.61-1.15-1.33-3.44-2.16l-2-.71a7.41 7.41 0 01-2.17-.45 2.48 2.48 0 00-1.51-.44 3 3 0 00-.85.08l-.27-.31-.63.23-.51-.5-.7.15-1.27-.55h-.81l-.53-.34H252l-.3-.4-.1.18h-.5l-.64-.65c-1.43 0-2.35-.23-2.77-.67l-.49.12-.31-.63-.72-.67a6.81 6.81 0 00-.9-1.56l.18-1.17.72-.82a1.07 1.07 0 00.62-.71 3 3 0 011-.42.34.34 0 00.27.16l.44-.56.19.26.1-.26 1.63-.49-.47-.1h.43c.51 0 .83-.15.94-.43a11.91 11.91 0 002.31-.26l-.23-.18a.92.92 0 01.4-.07 1 1 0 01.44.07l-.13-.11h.37a.54.54 0 00.57-.34h.9v.14a1.15 1.15 0 01.59-.18h.26l2.65-.23.13.23V262l.59-.33a.94.94 0 00.9.41h.23a3.57 3.57 0 011.44.19h-.33a9.48 9.48 0 012.46.45c1.06.29 1.6.78 1.6 1.46 0 .49-.39.79-1.14.89l-.18-.34-1.47-.44h-.64l-.5-.54-.94.12-.3-.26-.4.41-.63-.41-1.37.14-1.5-.36-.42.22a4.81 4.81 0 00-1.69.22 1.11 1.11 0 00-.33 0 .85.85 0 00-.61.31l-1.06.08-2.77.89-.71-.15-1 .71h-.6l-.44.55-1.13.71c-.12.05-.18.1-.18.16a5.28 5.28 0 01.26 1.05l.46.2.22.39.68.16.5.3a8.6 8.6 0 001.25.48l.09.19h1l1.33.78.56-.15a4.1 4.1 0 011 .46 2.19 2.19 0 00.79.33 1 1 0 00.47-.16v.27l1.54.12.46.24v-.13h.3l.69.4a3.84 3.84 0 011.64.23 4.27 4.27 0 01.68 0 1.5 1.5 0 011 .36 1.32 1.32 0 00.62.35h.09l.48-.12.33.12h.62l1.22.78 1.21.15.34.49 1.54 1a2.11 2.11 0 01.82 1.8zM231.19 282.26l-.13.92-1.17.34-.13.39-.64-.2-.77.44h-.47a2.15 2.15 0 01-1.5-.41c-.27-.27-.43-.41-.48-.41l-.24.15a3.53 3.53 0 01-1.51-1.33l.17-.09-.89-.89-.31-1-.54-.75-.31-1-.42-.75-.68-3.61v-1.52a3.57 3.57 0 01-.4-1.13h-.39l-.94 1.13-.9.59q0 .21-.81.93l-.44.25a8.4 8.4 0 00-.92.79c0 .25-.16.42-.49.49l-.54.56-.73.27-.61.74-3.46 2.35-1.54.82-.54.4a1.8 1.8 0 01-.6.29l-.74.21-.09.44h-.17l.09.15h-1l-.31.12.21.14-.93.09a5 5 0 00-.95-.83v-.71l-.39-.34-.47-2.39-.13-.3-.13-1.57.26-.79-.13-.58.02-.66-.16-2-.18-.37a1.34 1.34 0 01.39-.33.52.52 0 00.26-.48l-.31-.35.18-.82-.34-.63v-.42l.34-.52-.18-.74.31-1.17-.17-1.52.17-.91-.17-.14h.33c0-.32.07-.49.22-.49h.13l-.13-.15a1.72 1.72 0 011.61 1.32l-.32.44-.53 2.35a5 5 0 00-.08.67 3 3 0 00.44 1.2 17.4 17.4 0 00-.6 3.73 3.75 3.75 0 000 .54 1.25 1.25 0 00.34.55 7.85 7.85 0 00-.17 1.72l-.33.43.5.35-.41.26a1.37 1.37 0 00-.13.56 1.78 1.78 0 00.24.9 3.41 3.41 0 01.37 1.08 1.73 1.73 0 00.46 1h1.73l.08-.24a1.78 1.78 0 01.33-.08.33.33 0 01.22.08c0-.13.1-.22.31-.27l.08-.56.82.18.32-.59.71-.27a.51.51 0 01.5-.37 1.66 1.66 0 01.39.08l.09-.38a3.68 3.68 0 011.27-.55v-.31l.49-.08.21-.21a.94.94 0 00.53-.1 1.6 1.6 0 00.28-.72l1.28-.57.17-.48.31.08.33-.67.78-.31.15-.27.49-.32v-.49l.39-.18.46-.53.73-.29.08-.34h.39l-.17-.16a.86.86 0 01.76-.44h.14v-.45l.29-.12 1-1.7c.08-.28.21-.63.37-1.05l.18-.9.26-.48a3.77 3.77 0 00.26-.9l.07-.68a2.82 2.82 0 01.26-.88l.44-.31.67.31a4.67 4.67 0 00.94.78l-.21.37.08.7c0 .31-.2.46-.63.46l-.18.15v.37l-.3.45v.71l-.34.74.1 1a2 2 0 00-.44.67.57.57 0 00.26.45 1 1 0 01.33.33l-.28.08-.26.52.26.63-.13 1.2.41.59H223c-.21 0-.28.08-.23.25a4.6 4.6 0 01.23 1.43c.21.18.33.34.33.48s-.06.13-.18.19l.31.86a20 20 0 001.12 3.13l.5.61a2.44 2.44 0 00.61.88l1.27 1.06 1.65.31.19-.31.44.18a1.32 1.32 0 01.55-.3.68.68 0 01.61-.28zM192.24 269.19l.3.4-.3.27.09.82-.13 1 .17 1.15-.13.31.09.67-.64.56.22.26-.31.08.36.19-.05.63.05.43-.44.27.3.56a1.76 1.76 0 00-.43 1.24l.13.86v1h.3l-.57.24V281.97l-.54.62.21.27-.31.27a6 6 0 00-.08.92l-.33.35v.34l-.26.13v.34l-.31.38-.3.06a.56.56 0 00.13.35h-.33v.7l-.61.31-.09.36-.94 1.48-1.89 1.15-.28.11V290l-1.16.74h-.44l-.33.27H183l-.33.23-1.42-.16-1.53.56-1.34-.37-1 .14-.5-.14-.57.44-.38-.47h-.68l-1.24-.34-1.12.31-.22-.75-1.76.17-.5-.52h-.9l-.08-.3-.53.07-.55-.24h-.49a.39.39 0 01-.23-.38c0-.16.2-.23.59-.23a5.1 5.1 0 011.62.36l1 .38h.26a5.87 5.87 0 011.49.2 5.35 5.35 0 001 .18h.34l.36.31 1.4-.19.64.19v.21l.7-.21 1.27.29v-.25h.17a17.15 17.15 0 001.74-.08l.78-.07h1.6l.38-.16.17-.34h.64l.26-.32h.31l.46-.27a1.66 1.66 0 00.57-.33l.28.14.09-.44.61-.46.18-.63.68-.32.33-1.17h.08a.49.49 0 00.36-.12 1.69 1.69 0 00.13-.74l.46-.27-.33-.51.41-.4-.08-.46c.11-.18.23-.27.34-.27a.48.48 0 01.36.19l-.18-.52.29-1V281h.3l.14-1.34v-.19h.13c.11 0 .17 0 .17-.08l-.3-.74.3-.11V278l-.13-.12.26-.7-.13-.67.33-3.11.27-.78-.27-1.34.4-.64-.4-.53.27-1.07-.51-1.68v-1.8l-.39-1.05v-.67l-.31-.08.39-2a1 1 0 011.11-.82c.15 0 .25 0 .29.11l.22.4a1.44 1.44 0 00.44.39l-.31.48.36.63-.05.85.33.12v.42l.13.51-.41.48.41.12-.13.85.13 2.08zM448.39 338.92q0 10-6.06 15.72t-16 5.73h-14.57v-41.56h14.71c6.41 0 11.68 1.92 15.77 5.77a18.88 18.88 0 016.15 14.34zM435.31 349q3.19-3.58 3.19-10.11a12.36 12.36 0 00-3.23-8.92c-2.15-2.23-5.19-3.36-9.12-3.36h-4.37v26h4.44c3.92-.01 6.95-1.21 9.09-3.61zM379.35 324.11Q385 330 385 339.59T379.32 355q-5.69 5.89-15.11 5.9t-15.15-5.86q-5.64-5.86-5.63-15.48t5.66-15.45q5.69-5.88 15.12-5.89t15.14 5.89zm-4.82 15.48q0-5.85-2.79-9.29a10 10 0 00-15.07 0q-2.79 3.43-2.79 9.29t2.79 9.27a10 10 0 0015.07 0q2.79-3.41 2.79-9.27zM313.47 324.11q5.64 5.86 5.65 15.48T313.44 355c-3.77 3.93-8.82 5.9-15.11 5.9s-11.38-2-15.14-5.86-5.64-9.07-5.64-15.48 1.89-11.52 5.66-15.45 8.82-5.89 15.12-5.89 11.39 1.99 15.14 5.89zm-4.81 15.48q0-5.85-2.8-9.29a10 10 0 00-15.07 0q-2.79 3.43-2.79 9.29t2.79 9.27a10 10 0 0015.07 0q2.81-3.41 2.8-9.27zM245.48 318.81v7.58h-16.22v10.73h14.13v7.59h-14.13v15.66h-9.82v-41.56h26.04z" class="cls-5"/><path fill="#d90429" d="M440.3 262.35a4.44 4.44 0 01-.13 3.24c-.78 1.36-2.2 1.53-2.82 1.9a1.52 1.52 0 00-.69 1.1s.08 1.14.13 1.4.59 6.26.59 6.26a186.69 186.69 0 00.33 5.18 3 3 0 01-.08.61 1.57 1.57 0 01-1.7 1.4c-1.91-.17-1.73-1-1.77-1.06a7.08 7.08 0 010-1.4c-.21-.19.78-6.91.79-7l.52-5.4a1.47 1.47 0 00-1-1.34 3.25 3.25 0 01-2.6-3.36 8.55 8.55 0 011.13-3.38 5.62 5.62 0 012-1.79 4 4 0 011.74-.26 4.53 4.53 0 012.16 1.25 11.16 11.16 0 011.4 2.65z"/><path d="M371.76 446.31c.75 3.52 1.33 18.73 1.16 18.88-3.69 3.29-5.84 1-5.84-.09 0-3.69.48-5.4.67-9a52.44 52.44 0 01.88-6.12c.61-3.12-.21-4.36-.38-4.51-.6-.53-3.23-.29-3.14-1.83 0-.34.6-5.18.81-6.49.4-2.52.52-8.41 1.33-11.41.34-1.24 1.6-1.93 1.86-1.72a9.83 9.83 0 011 .93c2.04 3.05.41 20.05 1.65 21.36z" class="cls-5"/><circle cx="333.02" cy="445.49" r="21.45" fill="none" stroke="#2b2c41" stroke-miterlimit="10" stroke-width="3"/><rect width="3" height="3" x="331.52" y="458.48" class="cls-5" rx="1.5"/><rect width="3" height="3" x="331.52" y="429.07" class="cls-5" rx="1.5"/><rect width="3" height="3" x="314.7" y="443.99" class="cls-5" rx="1.5"/><path d="M299.12 432.05a32.69 32.69 0 01.15 3.42 9.53 9.53 0 01-.48 3 4.13 4.13 0 01-1.47 1.85c-.67.5-1.45 6.06-.92 11.59s1.7 11.7 2.24 12.44c.69.94 0 2-1.15 2.49a6.11 6.11 0 01-3.74-.12c-1.12-.49-2-1.43-1.3-2.37.54-.74 1.35-6.92 1.85-12.44s-.23-11.09-.9-11.59a4.2 4.2 0 01-1.47-1.85 9.53 9.53 0 01-.48-3 30.11 30.11 0 01.15-3.42c.12-1.51.28-3.38.42-5.57a11 11 0 01.43-1.66c.21-.62.45-1 .56-.28a62.86 62.86 0 010 6.4c-.08 2.56-.14 4.94.09 5.23.06.07.13.22.24.25s.26-.05.46-.41l.14-4.27c.08-2.27.18-4.75.28-5.77a4.68 4.68 0 01.14-1.19c.16-.39.34-.53.45.26a14.89 14.89 0 01.16 2.86c0 1.32-.18 6.76 0 7.6.13.5.4 1 .94.07 0-1.53-.07-6.55-.09-7.73a16.47 16.47 0 01.11-2.85c.12-.79.29-.65.45-.26a5.33 5.33 0 01.17 1.24c.1 1 .2 3.52.28 5.77L297 436c.2.36.35.44.45.41s.19-.18.25-.25c.23-.29.17-2.67.09-5.23a62.86 62.86 0 010-6.4c.1-.73.34-.34.56.28a9.56 9.56 0 01.42 1.66c.07 2.2.23 4.07.35 5.58z" class="cls-5"/><path fill="none" stroke="#2b2c41" stroke-miterlimit="10" stroke-width="2" d="M333 433.41v12.28l.27-.34 5.82-7"/><rect width="3" height="3" x="348.53" y="443.99" class="cls-5" rx="1.5"/></svg>