<svg xmlns="http://www.w3.org/2000/svg" fill="#1d3457" class="noi n-shopping-walking" viewBox="0 0 27 32"><defs/><path d="M12.6 5.7a2.9 2.9 0 002.8-3A2.8 2.8 0 0012.6 0a2.9 2.9 0 00-3 2.6 2.9 2.9 0 003 3zm-6.5 4.9c-.7 1.4-1.1 3-2 4.6-1.3.4-1.7.1-2-1L4 9.3a3.1 3.1 0 01.7-.7L10 6.6c1.4-.6 2.5-.3 3.2.3l2.5 5.7c.1.6.4.8.8.8l4 1.5c.6.6 0 2-1 1.8l-3.8-1s-.8-.2-1-.7l-1.3-1.9c-.3-.1-.5-.4-.8.1l-.8 4.4c-.2.5 0 .8.3 1.1l3.2 2.5c.3.3.5 1.1.5 1.1v9.1c-.6.5-1.2 1-2.2 0l-.1-7.8s0-1-.6-1.2l-2.5-2.1c-.7-.5-1.4-1-2 .4l-.5 3c.1.4-.1 1-.2 1L1.5 32C.2 31.7 0 31.2 0 30L5.5 24l.3-1.5-.1-1.7 2.5-10c.1-1-1.9-1.2-2.2-.2z"/><path fill="none" stroke="#1d3457" stroke-linejoin="round" stroke-width=".5" d="M18.3 18.6H17v10.5l7.6.3.3-10.6z"/><path fill="none" stroke="#1d3457" stroke-linecap="round" stroke-linejoin="round" stroke-width=".5" d="M18.8 20v-3.4c1-2 3.5-1.4 3.9 0V20"/><path fill="none" stroke="#1d3457" stroke-linecap="round" stroke-linejoin="round" stroke-width=".5" d="M20.3 18.6l.1-2.5c.2-1.6 3-2 3.6 0v2.6h1l1.6 8.7-2 2"/></svg>