<svg xmlns="http://www.w3.org/2000/svg" class="noi n-tray-hand-serve" fill="#1d3457" viewBox="0 0 32.06 33.37"><path class="n-path-1" d="M15.99 0c-.89 0-1.67.78-1.67 1.67 0 .67.22 1.22.78 1.45v.33C4.31 4.56 3.16 14.52 3.16 17.3h25.98c-.34-6.23-3.58-12.63-12.26-13.85l-.11-.22c.55-.34.78-.9.78-1.56 0-.9-.67-1.67-1.56-1.67zm15.45 19.87c1.1-.4.6-1.8-.5-2-.5-.2-29.42-.07-29.72-.17-.8.2-2 1.5-.5 2.2l30.72-.03zm-15.9 2.6c-.7.5-1.5.7-2.2.8l-2 .1c-1 .4-.3 1.2.5 1.3 1 .3 5 0 6.9-.4 1.7-.5 2.7-1.5 4-2.2.4 0 .8 0 1.1.4.1.3.2.6-.3 1.3-1.1 1-1.2 1.2-2.5 2.1-1.7 1.3-5 2-7 2.2l-4.5.5c-.5 0-.6.2-.8.4-1.2-1.5-2.3-3-3.6-4.3 1.2-1.1 2.2-2.2 3.5-3.1.8-.6 1.2-.6 1.7-.7h4.1c1.3 0 1.5 1.2 1 1.6zm-11.9 2.2c.1-.2.3-.1.5 0l4.2 5c.1.2.3.5 0 .7l-3.3 3h-.6l-4.2-5.2c-.3-.5-.2-.6 0-.7z"></path></svg>